{
  "accessors": [
    {
      "name": "Cloud_3_1_0_positions",
      "componentType": 5126,
      "count": 2958,
      "min": [
        -59.48030090332031,
        74.4928970336914,
        -108.07330322265625
      ],
      "max": [
        59.5343017578125,
        137.54629516601562,
        97.51950073242188
      ],
      "type": "VEC3",
      "bufferView": 0,
      "byteOffset": 0
    },
    {
      "name": "Cloud_3_1_0_normals",
      "componentType": 5126,
      "count": 2958,
      "min": [
        -0.999896764755249,
        -0.9999364614486694,
        -0.998041033744812
      ],
      "max": [
        0.9986028671264648,
        0.9998404383659363,
        0.9767218828201294
      ],
      "type": "VEC3",
      "bufferView": 1,
      "byteOffset": 0
    },
    {
      "name": "Cloud_3_1_0_indices",
      "componentType": 5123,
      "count": 17736,
      "min": [
        0
      ],
      "max": [
        2957
      ],
      "type": "SCALAR",
      "bufferView": 2,
      "byteOffset": 0
    }
  ],
  "asset": {
    "generator": "obj2gltf",
    "version": "2.0"
  },
  "buffers": [
    {
      "name": "Cloud3",
      "byteLength": 106464,
      "uri": "data:application/octet-stream;base64,"
    }
  ],
  "bufferViews": [
    {
      "name": "bufferView_0",
      "buffer": 0,
      "byteLength": 35496,
      "byteOffset": 0,
      "byteStride": 12,
      "target": 34962
    },
    {
      "name": "bufferView_1",
      "buffer": 0,
      "byteLength": 35496,
      "byteOffset": 35496,
      "byteStride": 12,
      "target": 34962
    },
    {
      "name": "bufferView_2",
      "buffer": 0,
      "byteLength": 35472,
      "byteOffset": 70992,
      "target": 34963
    }
  ],
  "materials": [
    {
      "name": "wire_134006006",
      "pbrMetallicRoughness": {
        "baseColorFactor": [
          0.5255,
          0.0235,
          0.0235,
          1
        ],
        "metallicFactor": 0,
        "roughnessFactor": 0.968
      },
      "emissiveFactor": [
        0,
        0,
        0
      ],
      "alphaMode": "OPAQUE",
      "doubleSided": false
    }
  ],
  "meshes": [
    {
      "name": "Cloud_3_1",
      "primitives": [
        {
          "attributes": {
            "POSITION": 0,
            "NORMAL": 1
          },
          "indices": 2,
          "material": 0,
          "mode": 4
        }
      ]
    }
  ],
  "nodes": [
    {
      "name": "Cloud_3",
      "mesh": 0
    }
  ],
  "scene": 0,
  "scenes": [
    {
      "nodes": [
        0
      ]
    }
  ]
}
